<svg width="38" height="12" viewBox="0 0 38 12" fill="none" xmlns="http://www.w3.org/2000/svg">
<path d="M0.755371 11V0.335938H3.76562C4.69336 0.335938 5.51367 0.541016 6.22656 0.951172C6.93945 1.36133 7.48877 1.94482 7.87451 2.70166C8.26514 3.4585 8.46289 4.32764 8.46777 5.30908V5.99023C8.46777 6.99609 8.27246 7.87744 7.88184 8.63428C7.49609 9.39111 6.94189 9.97217 6.21924 10.3774C5.50146 10.7827 4.66406 10.9902 3.70703 11H0.755371ZM2.16162 1.49316V9.8501H3.64111C4.7251 9.8501 5.56738 9.51318 6.16797 8.83936C6.77344 8.16553 7.07617 7.20605 7.07617 5.96094V5.33838C7.07617 4.12744 6.79053 3.1875 6.21924 2.51855C5.65283 1.84473 4.84717 1.50293 3.80225 1.49316H2.16162ZM11.8589 11H10.5039V3.0752H11.8589V11ZM10.394 0.973145C10.394 0.753418 10.46 0.567871 10.5918 0.416504C10.7285 0.265137 10.9287 0.189453 11.1924 0.189453C11.4561 0.189453 11.6562 0.265137 11.793 0.416504C11.9297 0.567871 11.998 0.753418 11.998 0.973145C11.998 1.19287 11.9297 1.37598 11.793 1.52246C11.6562 1.66895 11.4561 1.74219 11.1924 1.74219C10.9287 1.74219 10.7285 1.66895 10.5918 1.52246C10.46 1.37598 10.394 1.19287 10.394 0.973145ZM16.6489 9.16162L18.6118 3.0752H19.9961L17.1543 11H16.1216L13.2505 3.0752H14.6348L16.6489 9.16162ZM24.4858 11.1465C23.4116 11.1465 22.5376 10.7949 21.8638 10.0918C21.1899 9.38379 20.853 8.43896 20.853 7.25732V7.0083C20.853 6.22217 21.002 5.52148 21.2998 4.90625C21.6025 4.28613 22.0225 3.80273 22.5596 3.45605C23.1016 3.10449 23.6875 2.92871 24.3174 2.92871C25.3477 2.92871 26.1484 3.26807 26.7197 3.94678C27.291 4.62549 27.5767 5.59717 27.5767 6.86182V7.42578H22.208C22.2275 8.20703 22.4546 8.83936 22.8892 9.32275C23.3286 9.80127 23.8853 10.0405 24.5591 10.0405C25.0376 10.0405 25.4429 9.94287 25.7749 9.74756C26.1069 9.55225 26.3975 9.29346 26.6465 8.97119L27.4741 9.61572C26.8101 10.6362 25.814 11.1465 24.4858 11.1465ZM24.3174 4.04199C23.7705 4.04199 23.3115 4.24219 22.9404 4.64258C22.5693 5.03809 22.3398 5.59473 22.252 6.3125H26.2217V6.20996C26.1826 5.52148 25.9971 4.98926 25.665 4.61328C25.333 4.23242 24.8838 4.04199 24.3174 4.04199ZM32.9819 4.29102C32.7769 4.25684 32.5547 4.23975 32.3154 4.23975C31.4268 4.23975 30.8237 4.61816 30.5063 5.375V11H29.1514V3.0752H30.4697L30.4917 3.99072C30.936 3.28271 31.5659 2.92871 32.3813 2.92871C32.645 2.92871 32.8452 2.96289 32.9819 3.03125V4.29102ZM36.439 1.15625V3.0752H37.9185V4.12256H36.439V9.03711C36.439 9.35449 36.5049 9.59375 36.6367 9.75488C36.7686 9.91113 36.9932 9.98926 37.3105 9.98926C37.4668 9.98926 37.6816 9.95996 37.9551 9.90137V11C37.5986 11.0977 37.252 11.1465 36.915 11.1465C36.3096 11.1465 35.853 10.9634 35.5454 10.5972C35.2378 10.231 35.084 9.71094 35.084 9.03711V4.12256H33.6411V3.0752H35.084V1.15625H36.439Z" fill="black"/>
</svg>
