<svg width="21" height="9" viewBox="0 0 21 9" fill="none" xmlns="http://www.w3.org/2000/svg">
<path d="M2.1748 0.179688L4.73145 6.56055L7.28809 0.179688H8.62549V8H7.59424V4.95459L7.69092 1.66748L5.12354 8H4.33398L1.77197 1.68359L1.87402 4.95459V8H0.842773V0.179688H2.1748ZM13.8784 7.42529C13.4917 7.88005 12.9242 8.10742 12.1758 8.10742C11.5563 8.10742 11.0837 7.92839 10.7578 7.57031C10.4355 7.20866 10.2726 6.67513 10.269 5.96973V2.18848H11.2627V5.94287C11.2627 6.82373 11.6208 7.26416 12.3369 7.26416C13.096 7.26416 13.6009 6.98128 13.8516 6.41553V2.18848H14.8452V8H13.8999L13.8784 7.42529ZM18.3096 4.31006L19.5986 2.18848H20.7588L18.8574 5.06201L20.8179 8H19.6685L18.3257 5.82471L16.9829 8H15.8281L17.7886 5.06201L15.8872 2.18848H17.0366L18.3096 4.31006Z" fill="black"/>
</svg>
