<svg width="40" height="10" viewBox="0 0 40 10" fill="none" xmlns="http://www.w3.org/2000/svg">
<path d="M3.40869 5.83643H1.57178V9H0.535156V1.17969H3.12402C4.00488 1.17969 4.68164 1.38021 5.1543 1.78125C5.63053 2.18229 5.86865 2.76595 5.86865 3.53223C5.86865 4.01921 5.73617 4.44352 5.47119 4.80518C5.2098 5.16683 4.84456 5.43717 4.37549 5.61621L6.2124 8.93555V9H5.10596L3.40869 5.83643ZM1.57178 4.99316H3.15625C3.66829 4.99316 4.07471 4.86068 4.37549 4.5957C4.67985 4.33073 4.83203 3.97624 4.83203 3.53223C4.83203 3.04883 4.68701 2.67822 4.39697 2.42041C4.11051 2.1626 3.69515 2.0319 3.15088 2.02832H1.57178V4.99316ZM9.57471 9.10742C8.78695 9.10742 8.146 8.84961 7.65186 8.33398C7.15771 7.81478 6.91064 7.12191 6.91064 6.25537V6.07275C6.91064 5.49626 7.01986 4.98242 7.23828 4.53125C7.46029 4.0765 7.76823 3.72201 8.16211 3.46777C8.55957 3.20996 8.98926 3.08105 9.45117 3.08105C10.2067 3.08105 10.7939 3.32992 11.2129 3.82764C11.6318 4.32536 11.8413 5.03792 11.8413 5.96533V6.37891H7.9043C7.91862 6.95182 8.08512 7.41553 8.40381 7.77002C8.72607 8.12093 9.13428 8.29639 9.62842 8.29639C9.97933 8.29639 10.2765 8.22477 10.52 8.08154C10.7635 7.93831 10.9766 7.74854 11.1592 7.51221L11.7661 7.98486C11.2791 8.73324 10.5487 9.10742 9.57471 9.10742ZM9.45117 3.89746C9.05013 3.89746 8.71354 4.04427 8.44141 4.33789C8.16927 4.62793 8.00098 5.03613 7.93652 5.5625H10.8477V5.4873C10.819 4.98242 10.6829 4.59212 10.4395 4.31641C10.196 4.03711 9.86654 3.89746 9.45117 3.89746ZM12.7544 6.0459C12.7544 5.1543 12.9657 4.43815 13.3882 3.89746C13.8107 3.35319 14.3639 3.08105 15.0479 3.08105C15.7282 3.08105 16.2671 3.3138 16.6646 3.7793V0.75H17.6582V9H16.7451L16.6968 8.37695C16.2993 8.86393 15.7461 9.10742 15.0371 9.10742C14.3639 9.10742 13.8143 8.83171 13.3882 8.28027C12.9657 7.72884 12.7544 7.00911 12.7544 6.12109V6.0459ZM13.748 6.15869C13.748 6.81755 13.8841 7.33317 14.1562 7.70557C14.4284 8.07796 14.8044 8.26416 15.2842 8.26416C15.9144 8.26416 16.3745 7.98128 16.6646 7.41553V4.74609C16.3674 4.19824 15.9108 3.92432 15.2949 3.92432C14.8079 3.92432 14.4284 4.1123 14.1562 4.48828C13.8841 4.86426 13.748 5.42106 13.748 6.15869ZM20.1182 9H19.2148V3.7168H20.1182V9ZM19.1416 2.31543C19.1416 2.16895 19.1855 2.04525 19.2734 1.94434C19.3646 1.84342 19.498 1.79297 19.6738 1.79297C19.8496 1.79297 19.9831 1.84342 20.0742 1.94434C20.1654 2.04525 20.2109 2.16895 20.2109 2.31543C20.2109 2.46191 20.1654 2.58398 20.0742 2.68164C19.9831 2.7793 19.8496 2.82812 19.6738 2.82812C19.498 2.82812 19.3646 2.7793 19.2734 2.68164C19.1855 2.58398 19.1416 2.46191 19.1416 2.31543ZM24.4458 4.08008C24.2954 4.05501 24.1325 4.04248 23.957 4.04248C23.3053 4.04248 22.8631 4.31999 22.6304 4.875V9H21.6367V3.18848H22.6035L22.6196 3.85986C22.9455 3.34066 23.4074 3.08105 24.0054 3.08105C24.1987 3.08105 24.3455 3.10612 24.4458 3.15625V4.08008ZM27.6685 9.10742C26.8807 9.10742 26.2397 8.84961 25.7456 8.33398C25.2515 7.81478 25.0044 7.12191 25.0044 6.25537V6.07275C25.0044 5.49626 25.1136 4.98242 25.332 4.53125C25.554 4.0765 25.862 3.72201 26.2559 3.46777C26.6533 3.20996 27.083 3.08105 27.5449 3.08105C28.3005 3.08105 28.8877 3.32992 29.3066 3.82764C29.7256 4.32536 29.9351 5.03792 29.9351 5.96533V6.37891H25.998C26.0124 6.95182 26.1789 7.41553 26.4976 7.77002C26.8198 8.12093 27.228 8.29639 27.7222 8.29639C28.0731 8.29639 28.3703 8.22477 28.6138 8.08154C28.8573 7.93831 29.0703 7.74854 29.2529 7.51221L29.8599 7.98486C29.3729 8.73324 28.6424 9.10742 27.6685 9.10742ZM27.5449 3.89746C27.1439 3.89746 26.8073 4.04427 26.5352 4.33789C26.263 4.62793 26.0947 5.03613 26.0303 5.5625H28.9414V5.4873C28.9128 4.98242 28.7767 4.59212 28.5332 4.31641C28.2897 4.03711 27.9603 3.89746 27.5449 3.89746ZM33.4209 8.29639C33.7754 8.29639 34.0851 8.18896 34.3501 7.97412C34.6151 7.75928 34.7619 7.49072 34.7905 7.16846H35.7305C35.7126 7.50146 35.598 7.81836 35.3867 8.11914C35.1755 8.41992 34.8926 8.65983 34.5381 8.83887C34.1872 9.0179 33.8148 9.10742 33.4209 9.10742C32.6296 9.10742 31.9993 8.84424 31.5303 8.31787C31.0648 7.78792 30.832 7.06462 30.832 6.14795V5.98145C30.832 5.41569 30.9359 4.9126 31.1436 4.47217C31.3512 4.03174 31.6484 3.68978 32.0352 3.44629C32.4255 3.2028 32.8856 3.08105 33.4155 3.08105C34.0672 3.08105 34.6079 3.2762 35.0376 3.6665C35.4709 4.0568 35.7018 4.56348 35.7305 5.18652H34.7905C34.7619 4.81055 34.6187 4.5026 34.3608 4.2627C34.1066 4.01921 33.7915 3.89746 33.4155 3.89746C32.9106 3.89746 32.5186 4.08008 32.2393 4.44531C31.9635 4.80697 31.8257 5.33154 31.8257 6.01904V6.20703C31.8257 6.87663 31.9635 7.39225 32.2393 7.75391C32.515 8.11556 32.9089 8.29639 33.4209 8.29639ZM38.0049 2.4375V3.7168H38.9912V4.41504H38.0049V7.69141C38.0049 7.90299 38.0488 8.0625 38.1367 8.16992C38.2246 8.27409 38.3743 8.32617 38.5859 8.32617C38.6901 8.32617 38.8333 8.30664 39.0156 8.26758V9C38.778 9.0651 38.5469 9.09766 38.3223 9.09766C37.9186 9.09766 37.6143 8.97559 37.4092 8.73145C37.2041 8.4873 37.1016 8.14062 37.1016 7.69141V4.41504H36.1396V3.7168H37.1016V2.4375H38.0049Z" fill="black"/>
</svg>
